<?xml version="1.0" standalone="no"?>
<!DOCTYPE svg PUBLIC "-//W3C//DTD SVG 20010904//EN"
 "http://www.w3.org/TR/2001/REC-SVG-20010904/DTD/svg10.dtd">
<svg version="1.0" xmlns="http://www.w3.org/2000/svg"
 width="458.000000pt" height="458.000000pt" viewBox="0 0 458.000000 458.000000"
 preserveAspectRatio="xMidYMid meet">

<g transform="translate(0.000000,458.000000) scale(0.100000,-0.100000)"
fill="#000000" stroke="none">
<path d="M1165 3999 c-153 -37 -327 -148 -426 -270 -50 -63 -103 -164 -136
-260 l-28 -84 0 -1085 0 -1085 28 -85 c81 -250 245 -418 502 -515 l80 -30 872
-3 872 -3 -3 28 c-13 95 -39 231 -48 250 -6 12 -8 29 -5 37 4 9 2 16 -3 16 -6
0 -9 3 -9 8 1 4 1 39 0 79 l-1 72 -607 3 -608 3 -83 32 c-237 91 -387 251
-463 493 l-24 75 0 665 c0 747 -4 702 78 869 75 152 232 292 400 355 37 14
109 31 159 37 133 15 1275 7 1343 -10 80 -20 229 -96 295 -152 33 -28 81 -76
106 -107 53 -66 122 -200 130 -254 6 -35 8 -37 38 -31 17 3 38 11 46 18 8 7
36 18 62 25 53 14 93 51 102 95 4 17 20 45 37 63 20 21 32 46 35 70 11 104 27
209 34 221 12 22 -70 160 -139 233 -107 115 -235 188 -392 228 -80 20 -106 20
-1123 19 -991 -1 -1045 -2 -1121 -20z"/>
<path d="M1660 3341 c-176 -56 -307 -211 -330 -391 -12 -98 -12 -1133 0 -1230
13 -98 56 -185 129 -259 68 -70 132 -108 220 -133 60 -16 114 -18 631 -18
l566 0 2 33 c0 17 3 50 6 72 3 22 7 60 9 85 3 25 10 95 17 157 7 62 10 121 7
132 -3 11 4 64 14 118 25 124 21 141 -15 78 -46 -80 -163 -187 -254 -233 -143
-72 -282 -94 -427 -68 -252 47 -442 215 -521 461 -15 48 -19 89 -19 200 1 125
3 147 27 211 72 198 229 348 433 416 102 34 289 33 390 -1 151 -51 277 -146
358 -269 59 -90 83 -151 98 -249 7 -46 16 -83 21 -83 4 0 9 3 9 8 1 4 3 20 5
36 2 16 7 32 13 35 5 4 26 44 46 91 20 46 40 89 44 95 4 5 25 42 46 80 21 39
48 79 61 89 13 10 42 36 64 58 23 21 46 38 52 38 17 0 2 98 -25 164 -52 125
-159 227 -285 271 l-72 25 -632 -1 c-576 0 -638 -2 -688 -18z m116 -215 c43
-42 44 -45 44 -109 0 -56 -4 -70 -26 -97 -35 -41 -74 -60 -126 -60 -134 0
-206 141 -128 249 37 50 57 60 134 60 56 1 60 -1 102 -43z"/>
<path d="M2245 2741 c-132 -38 -216 -109 -274 -231 -34 -71 -36 -81 -36 -175
0 -92 3 -106 32 -168 42 -89 121 -168 210 -210 63 -30 76 -32 173 -32 97 0
110 2 171 31 122 58 216 180 241 313 38 208 -104 420 -318 475 -77 20 -123 19
-199 -3z"/>
</g>
</svg>